<svg xmlns="http://www.w3.org/2000/svg" width="1771" height="740" viewBox="0 0 1771 740">
  <g>
    <path d="M401.49128,334.89388a25.58839,25.58839,0,0,1-8.79451,17.98787l-69.28086,60.40792a26.18406,26.18406,0,0,1-17.2706,6.4438,7.12741,7.12741,0,0,1-.91518-.03933l-2.62628-.23719a25.82773,25.82773,0,0,1-13.68907-6.48362l-40.11219-36.37124c-9.86878-8.89512-12.21672-23.04833-5.65065-33.64338a26.16854,26.16854,0,0,1,39.75394-5.5346l13.41048,12.09736a15.67511,15.67511,0,0,0,20.89174.19762l40.51-35.30374c7.99858-6.958,18.94187-8.89513,27.89547-4.98131A26.03037,26.03037,0,0,1,401.49128,334.89388Z" style="fill: #25cf60"/>
    <path d="M256.54924,542.79412c-95.90586-25.87282-152.742-124.43482-126.69913-219.71436s125.25346-151.747,221.15931-125.87415a26.62543,26.62543,0,1,1-14.03987,51.36577c-67.39132-18.18036-137.10991,21.5018-155.41111,88.45789-18.30054,66.95365,21.64,136.21628,89.03134,154.39664,67.39622,18.18169,137.11414-21.498,155.41468-88.45169a26.77887,26.77887,0,0,1,51.70832,13.94951C451.66989,512.20327,352.45509,568.66693,256.54924,542.79412Z" style="fill: #25cf60"/>
    <g>
      <path d="M585.61816,315.45972H539.28711v-26.9668H664.707v26.9668H618.377V451.22046H585.61816Z" style="fill: #fff"/>
      <path d="M690.21484,280.35718c10.76368,0,18.48536,7.90332,18.48536,18.36426s-7.72168,18.36523-18.48536,18.36523-18.48535-7.9043-18.48535-18.36523S679.45117,280.35718,690.21484,280.35718Zm-15.91113,49.98047H706.127V451.22046H674.30371Z" style="fill: #fff"/>
      <path d="M726.48047,330.33765h30.41894v14.41308c6.084-11.15918,17.78321-17.20312,35.09864-17.20312,15.67773,0,27.8457,6.27637,35.09961,17.20312,8.8916-11.3916,22.46289-17.20312,40.24707-17.20312,25.50488,0,43.52246,17.20312,43.52246,46.26074v77.41211H879.044V378.92261c0-13.94727-6.31739-23.94336-21.76172-23.94336-14.03907,0-22.69727,8.36816-22.69727,24.6416v71.59961H802.76172V378.92261c0-13.94727-6.31738-23.94336-21.76074-23.94336-14.27344,0-22.69727,8.36816-22.69727,24.6416v71.59961H726.48047Z" style="fill: #fff"/>
      <path d="M923.96875,400.07788V383.572c0-32.77734,19.65527-56.02441,56.1582-56.02441,36.03516,0,54.28614,23.94433,54.28614,53.00293v21.15429H954.85547v3.02247c0,14.17968,7.25391,26.501,25.73926,26.501,13.57226,0,21.99609-6.97363,25.03711-15.34277h27.8457c-4.21192,22.084-25.97363,38.125-52.88281,38.125C946.19824,454.0105,923.96875,434.01831,923.96875,400.07788Zm30.88672-20.68945h50.30859V376.366c0-15.11035-7.95508-26.501-25.03711-26.501-18.251,0-25.27148,12.08789-25.27148,28.36035Z" style="fill: #fff"/>
      <path d="M1046.1123,381.48023V358.23315c0-41.61132,22.2295-72.99414,71.60254-72.99414,41.416,0,66.92188,27.89551,68.55957,61.13868h-30.41894c-2.10645-18.36524-13.80567-34.40528-38.14063-34.40528-27.37793,0-39.07714,18.59766-39.07714,44.63379v26.501c0,26.03711,11.69921,44.63379,39.07714,44.63379,24.335,0,36.03418-16.04,38.14063-34.40528h30.41894c-1.63769,33.24317-27.14355,61.13965-68.55957,61.13965C1068.3418,454.47534,1046.1123,423.09155,1046.1123,381.48023Z" style="fill: #fff"/>
      <path d="M1196.56934,416.35034c0-26.26855,19.88964-38.35742,49.13867-38.35742,14.50781,0,25.27148,5.5791,30.88769,10.22852V371.71655c0-11.1582-7.95605-19.52734-21.05957-19.52734-10.998,0-17.7832,4.88184-21.05957,11.39062h-29.4834c7.02051-23.47851,25.97364-36.03222,52.18067-36.03222,30.41894,0,51.24512,18.36523,51.24512,46.49316v77.17969h-30.65333v-11.1582c-5.61621,8.13574-21.05957,13.94824-35.0996,13.94824C1215.28906,454.0105,1196.56934,439.82983,1196.56934,416.35034Zm80.02636-1.16211c0-10.69336-10.53027-16.9707-24.80371-16.9707-14.97558,0-24.335,6.04492-24.335,17.20312s10.06152,17.667,23.39942,17.667C1264.89551,433.08765,1276.5957,425.41675,1276.5957,415.18823Z" style="fill: #fff"/>
      <path d="M1326.90137,330.33765h30.41894v14.41308c6.084-11.15918,17.78321-17.20312,35.09864-17.20312,15.67773,0,27.8457,6.27637,35.0996,17.20312,8.89161-11.3916,22.4629-17.20312,40.24707-17.20312,25.50489,0,43.52247,17.20312,43.52247,46.26074v77.41211h-31.82325V378.92261c0-13.94727-6.31738-23.94336-21.76172-23.94336-14.03906,0-22.69726,8.36816-22.69726,24.6416v71.59961h-31.82324V378.92261c0-13.94727-6.31739-23.94336-21.76074-23.94336-14.27344,0-22.69727,8.36816-22.69727,24.6416v71.59961h-31.82324Z" style="fill: #fff"/>
      <path d="M1647.4707,380.783v19.99219c0,29.05859-18.251,53.23535-51.01074,53.23535-16.14551,0-28.54687-6.50977-34.86426-15.8086v53.46778h-31.82324v-161.332h30.41895v14.41308c6.084-9.29883,18.48535-17.20312,36.03515-17.20312C1629.6875,327.54761,1647.4707,352.18921,1647.4707,380.783Zm-85.875,1.39453v17.668c0,18.36426,12.167,28.59277,26.67481,28.59277,18.01758,0,27.37695-12.08789,27.37695-29.05761V382.17749c0-16.04-8.65723-29.05859-27.14258-29.05859C1572.35938,353.1189,1561.5957,365.20776,1561.5957,382.17749Z" style="fill: #fff"/>
    </g>
  </g>
</svg>
