<svg xmlns="http://www.w3.org/2000/svg" width="1771" height="740" viewBox="0 0 1771 740">
  <g>
    <path d="M401.49128,334.89388a25.58839,25.58839,0,0,1-8.79451,17.98787l-69.28086,60.40792a26.18406,26.18406,0,0,1-17.2706,6.4438,7.12741,7.12741,0,0,1-.91518-.03933l-2.62628-.23719a25.82773,25.82773,0,0,1-13.68907-6.48362l-40.11219-36.37124c-9.86878-8.89512-12.21672-23.04833-5.65065-33.64338a26.16854,26.16854,0,0,1,39.75394-5.5346l13.41048,12.09736a15.67511,15.67511,0,0,0,20.89174.19762l40.51-35.30374c7.99858-6.958,18.94187-8.89513,27.89547-4.98131A26.03037,26.03037,0,0,1,401.49128,334.89388Z" style="fill: #25cf60"/>
    <path d="M256.54924,542.79412c-95.90586-25.87282-152.742-124.43482-126.69913-219.71436s125.25346-151.747,221.15931-125.87415a26.62543,26.62543,0,1,1-14.03987,51.36577c-67.39132-18.18036-137.10991,21.5018-155.41111,88.45789-18.30054,66.95365,21.64,136.21628,89.03134,154.39664,67.39622,18.18169,137.11414-21.498,155.41468-88.45169a26.77887,26.77887,0,0,1,51.70832,13.94951C451.66989,512.20327,352.45509,568.66693,256.54924,542.79412Z" style="fill: #25cf60"/>
    <g>
      <path d="M585.61816,315.45982H539.28711V288.493H664.707v26.9668H618.377V451.22056H585.61816Z" style="fill: #1b1b20"/>
      <path d="M690.21484,280.35728c10.76368,0,18.48536,7.90332,18.48536,18.36426s-7.72168,18.36523-18.48536,18.36523-18.48535-7.90429-18.48535-18.36523S679.45117,280.35728,690.21484,280.35728Zm-15.91113,49.98047H706.127V451.22056H674.30371Z" style="fill: #1b1b20"/>
      <path d="M726.48047,330.33775h30.41894v14.41309c6.084-11.15918,17.78321-17.20313,35.09864-17.20313,15.67773,0,27.8457,6.27637,35.09961,17.20313,8.8916-11.3916,22.46289-17.20313,40.24707-17.20313,25.50488,0,43.52246,17.20313,43.52246,46.26074v77.41211H879.044V378.92271c0-13.94726-6.31739-23.94336-21.76172-23.94336-14.03907,0-22.69727,8.36817-22.69727,24.6416v71.59961H802.76172V378.92271c0-13.94726-6.31738-23.94336-21.76074-23.94336-14.27344,0-22.69727,8.36817-22.69727,24.6416v71.59961H726.48047Z" style="fill: #1b1b20"/>
      <path d="M923.96875,400.078V383.57213c0-32.77735,19.65527-56.02442,56.1582-56.02442,36.03516,0,54.28614,23.94434,54.28614,53.00293v21.1543H954.85547v3.02246c0,14.17969,7.25391,26.501,25.73926,26.501,13.57226,0,21.99609-6.97364,25.03711-15.34278h27.8457c-4.21192,22.084-25.97363,38.125-52.88281,38.125C946.19824,454.0106,923.96875,434.01842,923.96875,400.078Zm30.88672-20.68946h50.30859v-3.02246c0-15.11035-7.95508-26.501-25.03711-26.501-18.251,0-25.27148,12.08789-25.27148,28.36035Z" style="fill: #1b1b20"/>
      <path d="M1046.1123,381.48033V358.23326c0-41.61133,22.2295-72.99414,71.60254-72.99414,41.416,0,66.92188,27.89551,68.55957,61.13867h-30.41894c-2.10645-18.36523-13.80567-34.40527-38.14063-34.40527-27.37793,0-39.07714,18.59765-39.07714,44.63379v26.501c0,26.03711,11.69921,44.63379,39.07714,44.63379,24.335,0,36.03418-16.04,38.14063-34.40527h30.41894c-1.63769,33.24316-27.14355,61.13965-68.55957,61.13965C1068.3418,454.47545,1046.1123,423.09166,1046.1123,381.48033Z" style="fill: #1b1b20"/>
      <path d="M1196.56934,416.35045c0-26.26856,19.88964-38.35743,49.13867-38.35743,14.50781,0,25.27148,5.57911,30.88769,10.22852V371.71666c0-11.15821-7.95605-19.52735-21.05957-19.52735-10.998,0-17.7832,4.88184-21.05957,11.39063h-29.4834c7.02051-23.47852,25.97364-36.03223,52.18067-36.03223,30.41894,0,51.24512,18.36524,51.24512,46.49317v77.17968h-30.65333v-11.1582c-5.61621,8.13574-21.05957,13.94824-35.0996,13.94824C1215.28906,454.0106,1196.56934,439.82994,1196.56934,416.35045Zm80.02636-1.16211c0-10.69336-10.53027-16.97071-24.80371-16.97071-14.97558,0-24.335,6.04493-24.335,17.20313s10.06152,17.667,23.39942,17.667C1264.89551,433.08775,1276.5957,425.41685,1276.5957,415.18834Z" style="fill: #1b1b20"/>
      <path d="M1326.90137,330.33775h30.41894v14.41309c6.084-11.15918,17.78321-17.20313,35.09864-17.20313,15.67773,0,27.8457,6.27637,35.0996,17.20313,8.89161-11.3916,22.4629-17.20313,40.24707-17.20313,25.50489,0,43.52247,17.20313,43.52247,46.26074v77.41211h-31.82325V378.92271c0-13.94726-6.31738-23.94336-21.76172-23.94336-14.03906,0-22.69726,8.36817-22.69726,24.6416v71.59961h-31.82324V378.92271c0-13.94726-6.31739-23.94336-21.76074-23.94336-14.27344,0-22.69727,8.36817-22.69727,24.6416v71.59961h-31.82324Z" style="fill: #1b1b20"/>
      <path d="M1647.4707,380.78306v19.99219c0,29.0586-18.251,53.23535-51.01074,53.23535-16.14551,0-28.54687-6.50976-34.86426-15.80859v53.46777h-31.82324v-161.332h30.41895v14.41309c6.084-9.29883,18.48535-17.20313,36.03515-17.20313C1629.6875,327.54771,1647.4707,352.18931,1647.4707,380.78306Zm-85.875,1.39454v17.668c0,18.36426,12.167,28.59278,26.67481,28.59278,18.01758,0,27.37695-12.08789,27.37695-29.05762V382.1776c0-16.04-8.65723-29.0586-27.14258-29.0586C1572.35938,353.119,1561.5957,365.20787,1561.5957,382.1776Z" style="fill: #1b1b20"/>
    </g>
  </g>
</svg>
